<?xml version="1.0" encoding="UTF-8"?>
<svg xmlns="http://www.w3.org/2000/svg" viewBox="0 0 900 600" font-family="system-ui, -apple-system, sans-serif">
  <rect width="900" height="600" fill="#f8fafc"/>
  <rect x="0" y="0" width="900" height="40" fill="#1e293b"/>
  <circle cx="20" cy="20" r="6" fill="#ef4444"/>
  <circle cx="40" cy="20" r="6" fill="#f59e0b"/>
  <circle cx="60" cy="20" r="6" fill="#10b981"/>
  <rect x="0" y="40" width="180" height="560" fill="#1e293b"/>
  <text x="20" y="80" font-size="13" font-weight="600" fill="#e2e8f0">Dashboard</text>
  <text x="20" y="110" font-size="12" fill="#94a3b8">Customers</text>
  <text x="20" y="135" font-size="12" fill="#94a3b8">Orders</text>
  <text x="20" y="160" font-size="12" fill="#94a3b8">Analytics</text>
  <text x="20" y="185" font-size="12" fill="#94a3b8">Settings</text>
  <text x="220" y="80" font-size="22" font-weight="700" fill="#0f172a">Overview</text>
  <rect x="220" y="100" width="200" height="100" fill="white" stroke="#e2e8f0" rx="6"/>
  <text x="240" y="125" font-size="11" fill="#64748b">REVENUE</text>
  <text x="240" y="160" font-size="22" font-weight="700" fill="#0f172a">$24,318</text>
  <text x="240" y="180" font-size="11" fill="#10b981">↑ 12.4%</text>
  <rect x="440" y="100" width="200" height="100" fill="white" stroke="#e2e8f0" rx="6"/>
  <text x="460" y="125" font-size="11" fill="#64748b">ACTIVE USERS</text>
  <text x="460" y="160" font-size="22" font-weight="700" fill="#0f172a">1,184</text>
  <text x="460" y="180" font-size="11" fill="#10b981">↑ 8.1%</text>
  <rect x="660" y="100" width="200" height="100" fill="white" stroke="#e2e8f0" rx="6"/>
  <text x="680" y="125" font-size="11" fill="#64748b">CHURN</text>
  <text x="680" y="160" font-size="22" font-weight="700" fill="#0f172a">2.1%</text>
  <text x="680" y="180" font-size="11" fill="#ef4444">↓ 0.4</text>
  <rect x="220" y="220" width="640" height="280" fill="white" stroke="#e2e8f0" rx="6"/>
  <polyline points="260,460 320,420 380,400 440,360 500,380 560,320 620,300 680,260 740,230 800,200" fill="none" stroke="#3b82f6" stroke-width="2"/>
  <text x="240" y="245" font-size="13" font-weight="600" fill="#0f172a">Revenue trend</text>
  <text x="240" y="550" font-size="11" fill="#94a3b8">WIP — Demo asset for portfolio</text>
</svg>
